# Blender v2.78 (sub 0) OBJ File: ''
# www.blender.org
o Cube_Cube.001
v -0.086983 -0.086983 0.086983
v -0.086983 0.086983 0.086983
v -0.086983 -0.086983 -0.086983
v -0.086983 0.086983 -0.086983
v 0.086983 -0.086983 0.086983
v 0.086983 0.086983 0.086983
v 0.086983 -0.086983 -0.086983
v 0.086983 0.086983 -0.086983
v 2.086983 0.086983 -0.086983
v 2.086983 -0.086983 -0.086983
v 2.086983 -0.086983 0.086983
v 2.086983 0.086983 0.086983
v -2.086983 -0.086983 -0.086983
v -2.086983 -0.086983 0.086983
v -2.086983 0.086983 0.086983
v -2.086983 0.086983 -0.086983
v -0.086983 -0.086983 2.086983
v -0.086983 0.086983 2.086983
v 0.086983 0.086983 2.086983
v 0.086983 -0.086983 2.086983
v -0.086983 0.086983 -2.086983
v -0.086983 -0.086983 -2.086983
v 0.086983 -0.086983 -2.086983
v 0.086983 0.086983 -2.086983
v 0.000000 2.086983 0.000000
v 1.902121 0.086983 -0.086983
v 1.902121 0.086983 0.086983
v -1.923839 -0.086983 0.086983
v 0.000000 -2.086983 0.000000
v -1.923839 0.086983 0.086983
v -1.923839 0.086983 -0.086983
v -1.923839 -0.086983 -0.086983
v 1.902121 -0.086983 -0.086983
v 1.902121 -0.086983 0.086983
v -2.086983 -0.086983 0.276174
v -2.086983 0.086983 0.276174
v -2.086983 0.086983 -0.276174
v -2.086983 -0.086983 -0.276174
v -1.923839 -0.086983 -0.276174
v -1.923839 0.086983 0.276174
v -1.923839 0.086983 -0.276174
v -1.923839 -0.086983 0.276174
v 2.086983 0.086983 -0.295305
v 2.086983 -0.086983 -0.295305
v 2.086983 0.086983 0.295305
v 2.086983 -0.086983 0.295305
v 1.902121 0.086983 0.295305
v 1.902121 -0.086983 0.295305
v 1.902121 -0.086983 -0.295305
v 1.902121 0.086983 -0.295305
vn 0.0000 -1.0000 0.0000
vn -1.0000 0.0000 0.0000
vn 0.0000 1.0000 0.0000
vn 0.0000 -0.0435 0.9991
vn 0.9991 0.0435 0.0000
vn 1.0000 0.0000 0.0000
vn 0.0000 0.0000 1.0000
vn 0.0000 0.0000 -1.0000
vn -0.9991 0.0435 0.0000
vn 0.0000 0.0435 0.9991
vn 0.0000 0.0435 -0.9991
vn 0.0000 -0.0435 -0.9991
vn -0.9991 -0.0435 0.0000
vn 0.9991 -0.0435 0.0000
s off
f 28//1 35//1 14//1
f 4//2 22//2 3//2
f 27//3 9//3 26//3
f 1//2 18//2 2//2
f 5//4 1//4 29//4
f 6//5 8//5 25//5
f 9//6 11//6 10//6
f 10//6 43//6 9//6
f 33//1 44//1 10//1
f 33//1 11//1 34//1
f 15//2 13//2 14//2
f 31//3 37//3 16//3
f 31//3 15//3 30//3
f 28//1 13//1 32//1
f 19//7 17//7 20//7
f 5//1 17//1 1//1
f 2//3 19//3 6//3
f 6//6 20//6 5//6
f 21//8 23//8 22//8
f 7//6 24//6 8//6
f 3//1 23//1 7//1
f 8//3 21//3 4//3
f 2//7 28//7 1//7
f 4//9 2//9 25//9
f 2//10 6//10 25//10
f 8//11 4//11 25//11
f 4//3 30//3 2//3
f 3//12 7//12 29//12
f 1//13 3//13 29//13
f 7//14 5//14 29//14
f 1//1 32//1 3//1
f 3//8 31//8 4//8
f 7//1 34//1 5//1
f 5//7 27//7 6//7
f 8//8 33//8 7//8
f 6//3 26//3 8//3
f 39//8 37//8 41//8
f 40//7 35//7 42//7
f 16//2 38//2 13//2
f 14//2 36//2 15//2
f 32//6 41//6 31//6
f 15//3 40//3 30//3
f 13//1 39//1 32//1
f 30//6 42//6 28//6
f 50//8 44//8 49//8
f 48//7 45//7 47//7
f 34//2 47//2 27//2
f 11//1 48//1 34//1
f 12//6 46//6 11//6
f 9//3 50//3 26//3
f 26//2 49//2 33//2
f 27//3 45//3 12//3
f 28//1 42//1 35//1
f 4//2 21//2 22//2
f 27//3 12//3 9//3
f 1//2 17//2 18//2
f 9//6 12//6 11//6
f 10//6 44//6 43//6
f 33//1 49//1 44//1
f 33//1 10//1 11//1
f 15//2 16//2 13//2
f 31//3 41//3 37//3
f 31//3 16//3 15//3
f 28//1 14//1 13//1
f 19//7 18//7 17//7
f 5//1 20//1 17//1
f 2//3 18//3 19//3
f 6//6 19//6 20//6
f 21//8 24//8 23//8
f 7//6 23//6 24//6
f 3//1 22//1 23//1
f 8//3 24//3 21//3
f 2//7 30//7 28//7
f 4//3 31//3 30//3
f 1//1 28//1 32//1
f 3//8 32//8 31//8
f 7//1 33//1 34//1
f 5//7 34//7 27//7
f 8//8 26//8 33//8
f 6//3 27//3 26//3
f 39//8 38//8 37//8
f 40//7 36//7 35//7
f 16//2 37//2 38//2
f 14//2 35//2 36//2
f 32//6 39//6 41//6
f 15//3 36//3 40//3
f 13//1 38//1 39//1
f 30//6 40//6 42//6
f 50//8 43//8 44//8
f 48//7 46//7 45//7
f 34//2 48//2 47//2
f 11//1 46//1 48//1
f 12//6 45//6 46//6
f 9//3 43//3 50//3
f 26//2 50//2 49//2
f 27//3 47//3 45//3
